16
14.9539682539683
1
1
1
1
1
1
1
1
0
1
1
1
1
1
1
1
1
1
1
1
1
1
1
1
1
1
1
1
1
1
1
1
1
1
1
1
0
1
1
1
1
1
1
1
1
1
1
1
1
1
1
0
1
1
1
0
1
1
1
1
0
1
1
1
1
1
1
0
1
1
1
1
1
1
1
1
1
1
1
1
1
1
1
1
1
1
1
1
1
1
1
1
1
1
1
1
1
1
1
1
1
1
1
1
1
1
1
1
0
1
1
1
1
1
1
1
1
1
1
1
1
1
1
1
1
1
1
1
1
--------
0.97
4096
2048
12
1.0
1.0
0.07
800
10
0.505
0
1
1
19
63
--------
35
0
32734
32734
45055
45056
82421
82421
104447
104448
123998
123998
145286
145286
157399
157399
165887
165888
178092
178092
186367
186368
207355
207355
231423
231424
239714
239714
251903
251904
271085
271085
287452
287452
321535
321536
329727
329728
337919
337920
349239
349239
362495
362496
379587
379587
404411
404411
414095
414095
424461
424461
448511
448512
462847
462847
491567
491567
501147
501147
509558
509558
525244
525244
556955
556955
574857
574857
587985
587985
657407
--------
1
64
66
66
68
68
68
68
66
68
68
71
71
59
59
68
66
66
66
66
66
66
71
71
59
59
66
64
64
59
59
69
68
66
60
59
1
0
0
0
0
0
0
0
0
0
0
0
0
0
0
0
0
0
0
0
0
0
0
0
0
0
0
0
0
0
0
0
0
0
0
0
片段数:35

序号 : 01 02  03  04  05  06  07  08  09  10  11 12 13 14 15  16  17  18  19  20  21  22 23 24 25 26  27 28 29 30 31 32  33  34 35 
音符 : e1 #f1 #f1 #g1 #g1 #g1 #g1 #f1 #g1 #g1 b1 b1 b  b  #g1 #f1 #f1 #f1 #f1 #f1 #f1 b1 b1 b  b  #f1 e1 e1 b  b  a1 #g1 #f1 c1 b  
编码 : 64 66  66  68  68  68  68  66  68  68  71 71 59 59 68  66  66  66  66  66  66  71 71 59 59 66  64 64 59 59 69 68  66  60 59 