54
27.9375056689342
1
1
1
1
1
1
1
1
0
1
1
1
1
1
1
1
1
1
1
1
1
1
1
1
1
1
1
1
1
1
1
1
1
1
1
1
0
1
1
1
1
1
1
1
1
1
1
1
1
1
1
0
1
1
1
0
1
1
1
1
0
1
1
1
1
1
1
0
1
1
1
1
1
1
1
1
1
1
1
1
1
1
1
1
1
1
1
1
1
1
1
1
1
1
1
1
1
1
1
1
1
1
1
1
1
1
1
1
0
1
1
1
1
1
1
1
1
1
1
1
1
1
1
1
1
1
1
1
1
--------
0.97
4096
2048
12
1.0
1.0
0.07
800
10
0.505
0
1
1
19
63
--------
42
0
18431
18432
38911
38912
83967
83968
98303
98304
143359
143360
159743
159744
182271
182272
221600
221600
249855
249856
271774
271774
315391
315392
331775
331776
362495
362496
409752
409752
466943
466944
477183
477184
524287
524288
544767
544768
585727
585728
598015
598016
628735
628736
649215
649216
686079
686080
714751
714752
741375
741376
759807
759808
790527
790528
829439
829440
878591
878592
897023
897024
931839
931840
950271
950272
995327
995328
1009663
1009664
1032191
1032192
1058815
1058816
1091583
1091584
1105919
1105920
1142783
1142784
1163263
1163264
1181695
1181696
1228799
--------
1
516
56
61
60
61
63
58
63
792
61
60
58
60
61
432
56
61
60
61
63
59
63
516
61
60
58
60
61
516
65
65
65
65
65
65
65
516
65
63
61
63
65
1
0
0
0
0
0
0
0
0
0
0
0
0
0
0
0
0
0
0
0
0
0
0
0
0
0
0
0
0
0
0
0
0
0
0
0
0
0
0
0
0
0
0
片段数:42

序号 : 01 02 03  04 05  06  07 08  09 10  11 12 13 14  15 16 17  18 19  20  21 22  23 24  25 26 27 28  29 30 31 32 33 34 35 36 37 38 39  40  41  42 
音符 : R  #g #c1 c1 #c1 #d1 #a #d1 R  #c1 c1 #a c1 #c1 R  #g #c1 c1 #c1 #d1 b  #d1 R  #c1 c1 #a c1 #c1 R  f1 f1 f1 f1 f1 f1 f1 R  f1 #d1 #c1 #d1 f1 
编码 : -1 56 61  60 61  63  58 63  -1 61  60 58 60 61  -1 56 61  60 61  63  59 63  -1 61  60 58 60 61  -1 65 65 65 65 65 65 65 -1 65 63  61  63  65 